<svg width="149" height="49" viewBox="0 0 149 49" fill="none" xmlns="http://www.w3.org/2000/svg">
<path d="M9.45 4.5H10.545V15H9.45V4.5ZM2.88 15H1.77V4.5H2.88V15ZM9.555 10.155H2.76V9.18H9.555V10.155ZM12.9943 15L17.7943 4.5H18.8893L23.6893 15H22.5193L18.1093 5.145H18.5593L14.1493 15H12.9943ZM14.8843 12.195L15.2143 11.295H21.3193L21.6493 12.195H14.8843ZM35.1172 15.09C34.3272 15.09 33.5972 14.96 32.9272 14.7C32.2572 14.43 31.6772 14.055 31.1872 13.575C30.6972 13.095 30.3122 12.53 30.0322 11.88C29.7622 11.23 29.6272 10.52 29.6272 9.75C29.6272 8.98 29.7622 8.27 30.0322 7.62C30.3122 6.97 30.6972 6.405 31.1872 5.925C31.6872 5.445 32.2722 5.075 32.9422 4.815C33.6122 4.545 34.3422 4.41 35.1322 4.41C35.8922 4.41 36.6072 4.54 37.2772 4.8C37.9472 5.05 38.5122 5.43 38.9722 5.94L38.2672 6.645C37.8372 6.205 37.3622 5.89 36.8422 5.7C36.3222 5.5 35.7622 5.4 35.1622 5.4C34.5322 5.4 33.9472 5.51 33.4072 5.73C32.8672 5.94 32.3972 6.245 31.9972 6.645C31.5972 7.035 31.2822 7.495 31.0522 8.025C30.8322 8.545 30.7222 9.12 30.7222 9.75C30.7222 10.38 30.8322 10.96 31.0522 11.49C31.2822 12.01 31.5972 12.47 31.9972 12.87C32.3972 13.26 32.8672 13.565 33.4072 13.785C33.9472 13.995 34.5322 14.1 35.1622 14.1C35.7622 14.1 36.3222 14 36.8422 13.8C37.3622 13.6 37.8372 13.28 38.2672 12.84L38.9722 13.545C38.5122 14.055 37.9472 14.44 37.2772 14.7C36.6072 14.96 35.8872 15.09 35.1172 15.09ZM43.6677 15V5.16L43.9677 5.46H39.9777V4.5H48.4527V5.46H44.4777L44.7627 5.16V15H43.6677ZM50.8511 15V4.5H54.7811C55.6711 4.5 56.4361 4.645 57.0761 4.935C57.7161 5.215 58.2061 5.625 58.5461 6.165C58.8961 6.695 59.0711 7.34 59.0711 8.1C59.0711 8.84 58.8961 9.48 58.5461 10.02C58.2061 10.55 57.7161 10.96 57.0761 11.25C56.4361 11.54 55.6711 11.685 54.7811 11.685H51.4661L51.9611 11.16V15H50.8511ZM51.9611 11.25L51.4661 10.71H54.7511C55.8011 10.71 56.5961 10.485 57.1361 10.035C57.6861 9.575 57.9611 8.93 57.9611 8.1C57.9611 7.26 57.6861 6.61 57.1361 6.15C56.5961 5.69 55.8011 5.46 54.7511 5.46H51.4661L51.9611 4.935V11.25ZM59.717 15L64.517 4.5H65.612L70.412 15H69.242L64.832 5.145H65.282L60.872 15H59.717ZM61.607 12.195L61.937 11.295H68.042L68.372 12.195H61.607ZM80.5541 4.5H81.6491V15H80.5541V4.5ZM73.9841 15H72.8741V4.5H73.9841V15ZM80.6591 10.155H73.8641V9.18H80.6591V10.155ZM85.6434 15V4.5H86.7384V13.2L93.4584 4.5H94.4634V15H93.3684V6.315L86.6484 15H85.6434ZM98.4567 15V4.5H99.5517V14.04H105.897V4.5H106.992V15H98.4567ZM107.622 17.46V14.7L107.907 15H105.897V14.04H108.657V17.46H107.622ZM111.134 13.965C111.644 14.165 112.124 14.215 112.574 14.115C113.024 14.005 113.439 13.65 113.819 13.05L114.329 12.24L114.434 12.105L118.454 4.5H119.564L114.794 13.29C114.474 13.9 114.094 14.355 113.654 14.655C113.224 14.955 112.764 15.115 112.274 15.135C111.794 15.155 111.309 15.065 110.819 14.865L111.134 13.965ZM114.404 13.11L109.859 4.5H111.044L115.004 12.195L114.404 13.11Z" fill="white"/>
<path d="M2 29H147.5M147.5 29L128.411 10M147.5 29L128.411 48" stroke="#0B68F0"/>
</svg>
