<svg width="169" height="89" viewBox="0 0 169 89" fill="none" xmlns="http://www.w3.org/2000/svg">
<path d="M9.45 44.5H10.545V55H9.45V44.5ZM2.88 55H1.77V44.5H2.88V55ZM9.555 50.155H2.76V49.18H9.555V50.155ZM12.9943 55L17.7943 44.5H18.8893L23.6893 55H22.5193L18.1093 45.145H18.5593L14.1493 55H12.9943ZM14.8843 52.195L15.2143 51.295H21.3193L21.6493 52.195H14.8843ZM35.1172 55.09C34.3272 55.09 33.5972 54.96 32.9272 54.7C32.2572 54.43 31.6772 54.055 31.1872 53.575C30.6972 53.095 30.3122 52.53 30.0322 51.88C29.7622 51.23 29.6272 50.52 29.6272 49.75C29.6272 48.98 29.7622 48.27 30.0322 47.62C30.3122 46.97 30.6972 46.405 31.1872 45.925C31.6872 45.445 32.2722 45.075 32.9422 44.815C33.6122 44.545 34.3422 44.41 35.1322 44.41C35.8922 44.41 36.6072 44.54 37.2772 44.8C37.9472 45.05 38.5122 45.43 38.9722 45.94L38.2672 46.645C37.8372 46.205 37.3622 45.89 36.8422 45.7C36.3222 45.5 35.7622 45.4 35.1622 45.4C34.5322 45.4 33.9472 45.51 33.4072 45.73C32.8672 45.94 32.3972 46.245 31.9972 46.645C31.5972 47.035 31.2822 47.495 31.0522 48.025C30.8322 48.545 30.7222 49.12 30.7222 49.75C30.7222 50.38 30.8322 50.96 31.0522 51.49C31.2822 52.01 31.5972 52.47 31.9972 52.87C32.3972 53.26 32.8672 53.565 33.4072 53.785C33.9472 53.995 34.5322 54.1 35.1622 54.1C35.7622 54.1 36.3222 54 36.8422 53.8C37.3622 53.6 37.8372 53.28 38.2672 52.84L38.9722 53.545C38.5122 54.055 37.9472 54.44 37.2772 54.7C36.6072 54.96 35.8872 55.09 35.1172 55.09ZM43.6677 55V45.16L43.9677 45.46H39.9777V44.5H48.4527V45.46H44.4777L44.7627 45.16V55H43.6677ZM50.8511 55V44.5H54.7811C55.6711 44.5 56.4361 44.645 57.0761 44.935C57.7161 45.215 58.2061 45.625 58.5461 46.165C58.8961 46.695 59.0711 47.34 59.0711 48.1C59.0711 48.84 58.8961 49.48 58.5461 50.02C58.2061 50.55 57.7161 50.96 57.0761 51.25C56.4361 51.54 55.6711 51.685 54.7811 51.685H51.4661L51.9611 51.16V55H50.8511ZM51.9611 51.25L51.4661 50.71H54.7511C55.8011 50.71 56.5961 50.485 57.1361 50.035C57.6861 49.575 57.9611 48.93 57.9611 48.1C57.9611 47.26 57.6861 46.61 57.1361 46.15C56.5961 45.69 55.8011 45.46 54.7511 45.46H51.4661L51.9611 44.935V51.25ZM59.717 55L64.517 44.5H65.612L70.412 55H69.242L64.832 45.145H65.282L60.872 55H59.717ZM61.607 52.195L61.937 51.295H68.042L68.372 52.195H61.607ZM80.5541 44.5H81.6491V55H80.5541V44.5ZM73.9841 55H72.8741V44.5H73.9841V55ZM80.6591 50.155H73.8641V49.18H80.6591V50.155ZM85.6434 55V44.5H86.7384V53.2L93.4584 44.5H94.4634V55H93.3684V46.315L86.6484 55H85.6434ZM98.4567 55V44.5H99.5517V54.04H105.897V44.5H106.992V55H98.4567ZM107.622 57.46V54.7L107.907 55H105.897V54.04H108.657V57.46H107.622ZM111.134 53.965C111.644 54.165 112.124 54.215 112.574 54.115C113.024 54.005 113.439 53.65 113.819 53.05L114.329 52.24L114.434 52.105L118.454 44.5H119.564L114.794 53.29C114.474 53.9 114.094 54.355 113.654 54.655C113.224 54.955 112.764 55.115 112.274 55.135C111.794 55.155 111.309 55.065 110.819 54.865L111.134 53.965ZM114.404 53.11L109.859 44.5H111.044L115.004 52.195L114.404 53.11Z" fill="white"/>
<path d="M2 69H147.5M147.5 69L128.411 50M147.5 69L128.411 88" stroke="#0B68F0"/>
</svg>
