<svg xmlns="http://www.w3.org/2000/svg" style="display: none;" fill="none">

    <symbol id="arrowRight" viewBox="0 0 17 12" fill="none">
        <path d="M1.5 5.25C1.08579 5.25 0.75 5.58579 0.75 6C0.75 6.41421 1.08579 6.75 1.5 6.75V5.25ZM16.0303 6.53033C16.3232 6.23744 16.3232 5.76256 16.0303 5.46967L11.2574 0.696699C10.9645 0.403806 10.4896 0.403806 10.1967 0.696699C9.90381 0.989593 9.90381 1.46447 10.1967 1.75736L14.4393 6L10.1967 10.2426C9.90381 10.5355 9.90381 11.0104 10.1967 11.3033C10.4896 11.5962 10.9645 11.5962 11.2574 11.3033L16.0303 6.53033ZM1.5 6.75H15.5V5.25H1.5V6.75Z" fill="currentColor"/>
    </symbol>

    <symbol id="chevronDown" viewBox="0 0 24 24" fill="none">
        <path d="M18 9L12 15L6 9" stroke="currentColor" stroke-width="1.2" stroke-linecap="round" stroke-linejoin="round"/>
    </symbol>

    <symbol id="chevronLeft" viewBox="0 0 9 16" fill="none">
        <path d="M8 1L1 8L8 15" stroke="currentColor" stroke-width="1.2" stroke-linecap="round" stroke-linejoin="round"/>
    </symbol>

    <symbol id="chevronRight" viewBox="0 0 9 16" fill="none">
        <path d="M1 1L8 8L1 15" stroke="currentColor" stroke-width="1.2" stroke-linecap="round" stroke-linejoin="round"/>
    </symbol>

    <symbol id="document" viewBox="0 0 30 30" fill="none">
        <path d="M24.375 12.9639V24.375C24.375 25.1209 24.0787 25.8363 23.5512 26.3637C23.0238 26.8912 22.3084 27.1875 21.5625 27.1875H8.4375C7.69158 27.1875 6.97621 26.8912 6.44876 26.3637C5.92132 25.8363 5.625 25.1209 5.625 24.375V5.625C5.625 4.87908 5.92132 4.16371 6.44876 3.63626C6.97621 3.10882 7.69158 2.8125 8.4375 2.8125H14.2236C14.7207 2.81258 15.1975 3.01005 15.549 3.36152L23.826 11.6385C24.1774 11.99 24.3749 12.4668 24.375 12.9639Z" stroke="currentColor" stroke-linejoin="round"/>
        <path d="M15 3.28125V10.3125C15 10.8098 15.1975 11.2867 15.5492 11.6383C15.9008 11.99 16.3777 12.1875 16.875 12.1875H23.9062" stroke="currentColor" stroke-linecap="round" stroke-linejoin="round"/>
    </symbol>

    <symbol id="download" viewBox="0 0 24 24" fill="none">
        <path d="M6 20C5.45 20 4.979 19.804 4.587 19.412C4.195 19.02 3.99934 18.5493 4 18V15H6V18H18V15H20V18C20 18.55 19.804 19.021 19.412 19.413C19.02 19.805 18.5493 20.0007 18 20H6ZM12 16L7 11L8.4 9.55L11 12.15V4H13V12.15L15.6 9.55L17 11L12 16Z" fill="currentColor"/>
    </symbol>

    <symbol id="telegram" viewBox="0 0 23 18" fill="none">
        <path d="M1.10149 7.57382L21.7432 1.0085C22.0532 0.909613 22.3489 1.19392 22.2633 1.50798L18.6518 14.7359C18.5879 14.9695 18.3372 15.0974 18.1108 15.0115L10.8182 12.2502C10.5315 12.1416 10.4604 11.7675 10.6877 11.5615L16.4085 6.37213C16.7602 6.05333 16.3806 5.49068 15.9536 5.69868L6.37696 10.3618C6.27209 10.4129 6.15075 10.4167 6.04283 10.3726L1.07088 8.34568C0.715557 8.20056 0.735681 7.69009 1.10152 7.57394L1.10149 7.57382ZM12.5759 8.69229C12.7554 8.53617 12.556 8.25477 12.3492 8.37258L7.78543 10.8677C7.37386 11.1023 7.18057 11.5917 7.32051 12.0448L8.73022 16.7962C8.80187 17.0369 9.10369 17.1145 9.28221 16.9383L12.0959 14.2719C12.2108 14.1582 12.1742 13.9639 12.0256 13.9006L9.10602 12.4438C8.94566 12.3637 8.91411 12.1487 9.04414 12.0258L12.5756 8.69226L12.5759 8.69229Z" fill="currentColor"/>
    </symbol>

</svg>
